<?xml version="1.0" encoding="utf-8"?>
<!-- Generator: Adobe Illustrator 23.0.3, SVG Export Plug-In . SVG Version: 6.00 Build 0)  -->
<svg version="1.1" id="Layer_1" xmlns="http://www.w3.org/2000/svg" xmlns:xlink="http://www.w3.org/1999/xlink" x="0px" y="0px"
	 viewBox="0 0 83 21" style="enable-background:new 0 0 83 21;" xml:space="preserve">
<style type="text/css">
	.st0{fill:#F5F5F5;}
	.st1{fill:#F29C0E;}
</style>
<path class="st0" d="M7.6,20c-1,0-1.8-0.3-2.4-0.8C4.6,18.7,4.3,18,4.3,17c0-1,0.4-1.7,1.1-2.2C6.2,14.2,7.3,14,8.8,14h1.5v-0.8
	c0-0.5-0.1-0.9-0.4-1.1c-0.3-0.3-0.6-0.4-1.1-0.4c-0.5,0-0.8,0.1-1,0.3c-0.2,0.2-0.4,0.5-0.4,0.9l-2.6,0v-0.1c0-0.9,0.3-1.6,1.1-2.2
	c0.8-0.6,1.8-0.9,3-0.9c1.2,0,2.2,0.3,3,0.9c0.7,0.6,1.1,1.5,1.1,2.6v4.1c0,0.9,0.1,1.7,0.4,2.5h-2.7c-0.2-0.5-0.4-1-0.4-1.5
	C9.7,19.5,8.7,20,7.6,20z M7,16.9L7,16.9c0,0.3,0.1,0.6,0.3,0.8c0.2,0.2,0.5,0.3,1,0.3c0.4,0,0.8-0.1,1.2-0.3
	c0.4-0.2,0.6-0.5,0.8-0.8v-1.4H8.8c-0.6,0-1,0.1-1.3,0.4C7.1,16.2,7,16.5,7,16.9z M18.3,20c-1.1,0-1.9-0.3-2.5-1
	c-0.6-0.7-0.9-1.7-0.9-3.1v-6h2.7v6c0,0.7,0.1,1.2,0.4,1.6c0.2,0.3,0.6,0.5,1.1,0.5c0.8,0,1.5-0.3,1.9-0.8V9.9h2.7v10h-2.3l-0.2-1.4
	C20.5,19.5,19.5,20,18.3,20z M29.2,9.7c1,0,1.8,0.4,2.4,1.3V5.5h2.7v14.4h-2.3l-0.2-1.2c-0.6,0.9-1.5,1.4-2.6,1.4
	c-1.2,0-2.2-0.4-2.9-1.3c-0.7-0.9-1-2.1-1-3.6l0-0.2c0-1.6,0.3-2.9,1-3.8S27.9,9.7,29.2,9.7z M29.8,18c0.8,0,1.3-0.3,1.7-0.9v-4.3
	c-0.4-0.7-1-1-1.7-1c-0.6,0-1.1,0.3-1.4,0.8c-0.3,0.6-0.5,1.3-0.5,2.3l0,0.2C27.9,17,28.6,18,29.8,18z M39.2,9.8v10h-2.7v-10H39.2z
	 M39.2,5.4v2h-2.7v-2H39.2z M47.7,15.1v-0.2c0-1-0.2-1.8-0.5-2.3c-0.3-0.5-0.8-0.8-1.4-0.8c-0.8,0-1.4,0.3-1.7,1V17
	c0.3,0.6,0.9,0.9,1.8,0.9c0.7,0,1.1-0.2,1.4-0.7C47.5,16.8,47.7,16.1,47.7,15.1z M50.4,14.9v0.2c0,1.5-0.3,2.7-1,3.6
	c-0.7,0.9-1.6,1.3-2.9,1.3c-1.1,0-2-0.5-2.6-1.4l-0.2,1.2h-2.3V5.5h2.7v5.5c0.6-0.8,1.4-1.3,2.4-1.3c1.3,0,2.2,0.5,2.9,1.4
	C50,12,50.4,13.3,50.4,14.9z M54.9,5.4v14.4h-2.7V5.4H54.9z M62.9,13.6c0-0.6-0.1-1-0.4-1.4c-0.3-0.3-0.7-0.5-1.2-0.5
	c-0.5,0-0.9,0.2-1.2,0.6c-0.3,0.4-0.5,0.9-0.5,1.5l0,0.1h3.3V13.6z M61.5,20.1c-1.4,0-2.6-0.5-3.5-1.4c-0.9-0.9-1.3-2.1-1.3-3.5
	v-0.4c0-1,0.2-1.9,0.5-2.6c0.4-0.8,0.9-1.4,1.6-1.8c0.7-0.4,1.5-0.7,2.4-0.7c1.3,0,2.4,0.4,3.1,1.2c0.7,0.8,1.1,1.9,1.1,3.3v1.5h-6
	l0,0.1c0,0.7,0.3,1.2,0.7,1.6c0.4,0.4,0.9,0.6,1.5,0.6c0.6,0,1.1-0.1,1.5-0.2c0.4-0.1,0.8-0.3,1.3-0.6l0.7,1.7v0
	c-0.4,0.4-1,0.6-1.6,0.9C63,20,62.3,20.1,61.5,20.1z"/>
<path class="st1" d="M83,4.7v1.8l-10.7,6.6L61.6,6.5V4.7l10.7,6.6L83,4.7z M76.5,7.1l1.6-1C76.8,4.3,74.7,3,72.3,3s-4.5,1.2-5.8,3.1
	h0c0.1-0.1,0.2-0.1,0.3-0.2C69.8,3.4,74.1,4,76.5,7.1z M69.1,7.7c0.6-0.4,1.2-0.6,1.9-0.6c1.2,0,2.2,0.6,2.9,1.6l1.5-0.9
	c-0.7-1-1.9-1.6-3.2-1.6C71,6.1,69.8,6.7,69.1,7.7z M65,3.4C69.4,0,75.7,0.9,79,5.5l0,0l1.6-1C78.9,1.8,75.8,0,72.3,0
	c-3.5,0-6.6,1.8-8.4,4.5C64.2,4.1,64.6,3.7,65,3.4z"/>
</svg>
