<?xml version="1.0" encoding="utf-8"?>
<!-- Generator: Adobe Illustrator 23.0.3, SVG Export Plug-In . SVG Version: 6.00 Build 0)  -->
<svg version="1.1" id="Layer_1" xmlns="http://www.w3.org/2000/svg" xmlns:xlink="http://www.w3.org/1999/xlink" x="0px" y="0px"
	 viewBox="0 0 100 100" style="enable-background:new 0 0 100 100;" xml:space="preserve">
<style type="text/css">
	.st0{fill:#212325;}
	.st1{fill:#737373;}
</style>
<rect x="0" y="0" class="st0" width="100" height="100"/>
<g>
	<path class="st1" d="M16.7,57.3c-1,0-1.8-0.3-2.4-0.8c-0.6-0.5-0.9-1.3-0.9-2.2c0-1,0.4-1.7,1.1-2.2c0.8-0.5,1.9-0.8,3.3-0.8h1.5
		v-0.8c0-0.5-0.1-0.9-0.4-1.1c-0.3-0.3-0.6-0.4-1.1-0.4c-0.5,0-0.8,0.1-1,0.3c-0.2,0.2-0.4,0.5-0.4,0.9l-2.6,0V50
		c0-0.9,0.3-1.6,1.1-2.2c0.8-0.6,1.8-0.9,3-0.9c1.2,0,2.2,0.3,3,0.9c0.7,0.6,1.1,1.5,1.1,2.6v4.1c0,0.9,0.1,1.7,0.4,2.5h-2.7
		c-0.2-0.5-0.4-1-0.4-1.5C18.7,56.7,17.8,57.3,16.7,57.3z M16.1,54.2L16.1,54.2c0,0.3,0.1,0.6,0.3,0.8c0.2,0.2,0.5,0.3,1,0.3
		c0.4,0,0.8-0.1,1.2-0.3c0.4-0.2,0.6-0.5,0.8-0.8v-1.4h-1.5c-0.6,0-1,0.1-1.3,0.4C16.2,53.4,16.1,53.8,16.1,54.2z M27.4,57.3
		c-1.1,0-1.9-0.3-2.5-1c-0.6-0.7-0.9-1.7-0.9-3.1v-6h2.7v6c0,0.7,0.1,1.2,0.4,1.6c0.2,0.3,0.6,0.5,1.1,0.5c0.8,0,1.5-0.3,1.9-0.8
		v-7.3h2.7v10h-2.3l-0.2-1.4C29.5,56.8,28.6,57.3,27.4,57.3z M38.2,46.9c1,0,1.8,0.4,2.4,1.3v-5.5h2.7v14.4H41l-0.2-1.2
		c-0.6,0.9-1.5,1.4-2.6,1.4c-1.2,0-2.2-0.4-2.9-1.3c-0.7-0.9-1-2.1-1-3.6l0-0.2c0-1.6,0.3-2.9,1-3.8C36.1,47.4,37,46.9,38.2,46.9z
		 M38.9,55.2c0.8,0,1.3-0.3,1.7-0.9V50c-0.4-0.7-1-1-1.7-1c-0.6,0-1.1,0.3-1.4,0.8c-0.3,0.6-0.5,1.3-0.5,2.3l0,0.2
		C37,54.3,37.7,55.2,38.9,55.2z M48.2,47.1v10h-2.7v-10H48.2z M48.2,42.7v2h-2.7v-2H48.2z M56.8,52.4v-0.2c0-1-0.2-1.8-0.5-2.3
		C56,49.3,55.5,49,54.9,49c-0.8,0-1.4,0.3-1.7,1v4.2c0.3,0.6,0.9,0.9,1.8,0.9c0.7,0,1.1-0.2,1.4-0.7C56.6,54,56.8,53.3,56.8,52.4z
		 M59.5,52.2v0.2c0,1.5-0.3,2.7-1,3.6c-0.7,0.9-1.6,1.3-2.9,1.3c-1.1,0-2-0.5-2.6-1.4l-0.2,1.2h-2.3V42.7h2.7v5.5
		c0.6-0.8,1.4-1.3,2.4-1.3c1.3,0,2.2,0.5,2.9,1.4C59.1,49.3,59.5,50.6,59.5,52.2z M64,42.7v14.4h-2.7V42.7H64z M72,50.9
		c0-0.6-0.1-1-0.4-1.4c-0.3-0.3-0.7-0.5-1.2-0.5c-0.5,0-0.9,0.2-1.2,0.6c-0.3,0.4-0.5,0.9-0.5,1.5l0,0.1H72V50.9z M70.6,57.3
		c-1.4,0-2.6-0.5-3.5-1.4c-0.9-0.9-1.3-2.1-1.3-3.5V52c0-1,0.2-1.9,0.5-2.6c0.4-0.8,0.9-1.4,1.6-1.8c0.7-0.4,1.5-0.7,2.4-0.7
		c1.3,0,2.4,0.4,3.1,1.2c0.7,0.8,1.1,1.9,1.1,3.3v1.5h-6l0,0.1c0,0.7,0.3,1.2,0.7,1.6c0.4,0.4,0.9,0.6,1.5,0.6
		c0.6,0,1.1-0.1,1.5-0.2c0.4-0.1,0.8-0.3,1.3-0.6l0.7,1.7v0c-0.4,0.4-1,0.6-1.6,0.9C72.1,57.2,71.4,57.3,70.6,57.3z"/>
	<path class="st1" d="M92.1,42v1.8l-10.7,6.6l-10.7-6.6V42l10.7,6.6L92.1,42z M85.6,44.3l1.6-1c-1.2-1.8-3.4-3.1-5.8-3.1
		s-4.5,1.2-5.8,3.1h0c0.1-0.1,0.2-0.1,0.3-0.2C78.9,40.7,83.2,41.2,85.6,44.3z M78.2,45c0.6-0.4,1.2-0.6,1.9-0.6
		c1.2,0,2.2,0.6,2.9,1.6l1.5-0.9c-0.7-1-1.9-1.6-3.2-1.6C80.1,43.3,78.9,44,78.2,45z M74.1,40.7c4.4-3.5,10.7-2.5,14,2.1l0,0l1.6-1
		c-1.8-2.7-4.9-4.5-8.4-4.5c-3.5,0-6.6,1.8-8.4,4.5C73.3,41.4,73.7,41,74.1,40.7z"/>
</g>
</svg>
